<?xml version="1.0" encoding="UTF-8"?>
<svg id="Layer_2" data-name="Layer 2" xmlns="http://www.w3.org/2000/svg" viewBox="0 0 175.13 23.64">
  <defs>
    <style>
      .cls-1 {
        fill: #6d6e70;
        stroke-width: 0px;
      }
    </style>
  </defs>
  <g id="Layer_1-2" data-name="Layer 1">
    <g>
      <g>
        <path class="cls-1" d="M0,11.82C0,4.8,5.31,0,11.99,0c5.21,0,8.12,2.74,9.73,5.58l-4.18,2.06c-.96-1.85-3.01-3.32-5.55-3.32-3.97,0-6.99,3.19-6.99,7.5s3.01,7.5,6.99,7.5c2.54,0,4.59-1.44,5.55-3.32l4.18,2.02c-1.64,2.84-4.52,5.62-9.73,5.62C5.31,23.64,0,18.84,0,11.82Z"/>
        <path class="cls-1" d="M22.19,14.94c0-4.69,3.29-8.67,8.74-8.67s8.77,3.97,8.77,8.67-3.29,8.7-8.77,8.7-8.74-3.97-8.74-8.7ZM35.18,14.94c0-2.57-1.54-4.8-4.25-4.8s-4.21,2.23-4.21,4.8,1.51,4.83,4.21,4.83,4.25-2.23,4.25-4.83Z"/>
        <path class="cls-1" d="M52.81,13.22c0-2.29-1.2-3.08-3.05-3.08-1.71,0-3.05.96-3.77,1.95v11.13h-4.35V6.68h4.35v2.16c1.06-1.27,3.08-2.57,5.79-2.57,3.63,0,5.38,2.06,5.38,5.28v11.68h-4.35v-10Z"/>
        <path class="cls-1" d="M61.07,19.11v-8.63h-2.74v-3.8h2.74V2.16h4.38v4.52h3.36v3.8h-3.36v7.47c0,1.03.55,1.82,1.51,1.82.65,0,1.27-.24,1.51-.48l.92,3.29c-.65.58-1.82,1.06-3.63,1.06-3.05,0-4.69-1.58-4.69-4.52Z"/>
        <path class="cls-1" d="M70.52,6.68h4.35v2.26c1.16-1.47,3.22-2.64,5.28-2.64v4.25c-.31-.07-.72-.14-1.2-.14-1.44,0-3.36.82-4.08,1.88v10.93h-4.35V6.68Z"/>
        <path class="cls-1" d="M80.52,14.94c0-4.69,3.29-8.67,8.74-8.67s8.77,3.97,8.77,8.67-3.29,8.7-8.77,8.7-8.74-3.97-8.74-8.7ZM93.5,14.94c0-2.57-1.54-4.8-4.25-4.8s-4.21,2.23-4.21,4.8,1.51,4.83,4.21,4.83,4.25-2.23,4.25-4.83Z"/>
        <path class="cls-1" d="M99.97.38h4.35v22.85h-4.35V.38Z"/>
      </g>
      <g>
        <path class="cls-1" d="M107.14,11.82c0-7.02,5.1-11.82,11.51-11.82,3.7,0,6.44,1.61,8.39,4.04l-1.64,1.06c-1.44-1.99-3.94-3.32-6.75-3.32-5.31,0-9.46,4.08-9.46,10.04s4.15,10.04,9.46,10.04c2.81,0,5.31-1.34,6.75-3.32l1.64,1.03c-2.02,2.5-4.69,4.08-8.39,4.08-6.41,0-11.51-4.8-11.51-11.82Z"/>
        <path class="cls-1" d="M128.89,6.68h1.78v2.84c1.4-1.85,3.29-3.19,5.58-3.19v1.95c-.31-.03-.55-.07-.89-.07-1.68,0-3.94,1.51-4.69,2.95v12.06h-1.78V6.68Z"/>
        <path class="cls-1" d="M144.71,6.27c5.04,0,7.81,4.01,7.81,8.77v.48h-13.84c.17,3.6,2.57,6.58,6.44,6.58,2.12,0,4.01-.79,5.45-2.3l.93,1.17c-1.64,1.71-3.73,2.67-6.47,2.67-4.83,0-8.29-3.6-8.29-8.7,0-4.8,3.39-8.67,7.98-8.67ZM138.68,14.11h12.02c-.03-2.81-1.88-6.3-6.03-6.3-3.91,0-5.86,3.43-6,6.3Z"/>
        <path class="cls-1" d="M154.68,19.7c1.06,1.34,2.98,2.43,5.34,2.43,2.77,0,4.42-1.37,4.42-3.29,0-2.12-2.26-2.74-4.66-3.36-2.74-.69-5.79-1.4-5.79-4.62,0-2.54,2.12-4.59,5.89-4.59,2.84,0,4.73,1.1,5.93,2.47l-.99,1.23c-.96-1.3-2.74-2.19-4.93-2.19-2.57,0-4.15,1.27-4.15,2.98,0,1.88,2.12,2.4,4.42,2.98,2.84.72,6.03,1.51,6.03,5.04,0,2.67-2.09,4.86-6.2,4.86-2.67,0-4.73-.79-6.37-2.6l1.06-1.34Z"/>
        <path class="cls-1" d="M169.06,20.04v-11.75h-2.74v-1.61h2.74V2.16h1.82v4.52h3.36v1.61h-3.36v11.48c0,1.34.55,2.26,1.71,2.26.79,0,1.47-.38,1.85-.79l.69,1.37c-.65.62-1.44,1.03-2.81,1.03-2.19,0-3.25-1.34-3.25-3.6Z"/>
      </g>
    </g>
  </g>
</svg>