<?xml version="1.0" encoding="UTF-8"?>
<svg id="Layer_2" data-name="Layer 2" xmlns="http://www.w3.org/2000/svg" viewBox="0 0 169.97 29.6">
  <defs>
    <style>
      .cls-1 {
        fill: #6d6e70;
        stroke-width: 0px;
      }
    </style>
  </defs>
  <g id="Layer_1-2" data-name="Layer 1">
    <g>
      <g>
        <path class="cls-1" d="M0,.03h4.86v18.57h9.66v4.28H0V.03Z"/>
        <path class="cls-1" d="M23.67,5.92c4.93,0,8.29,3.7,8.29,9.11v.96h-12.3c.27,2.09,1.95,3.84,4.76,3.84,1.54,0,3.36-.62,4.42-1.64l1.92,2.81c-1.64,1.51-4.25,2.3-6.82,2.3-5.04,0-8.84-3.39-8.84-8.7,0-4.8,3.53-8.67,8.56-8.67ZM19.59,13.05h8.15c-.1-1.58-1.2-3.67-4.08-3.67-2.71,0-3.87,2.02-4.08,3.67Z"/>
        <path class="cls-1" d="M45.21,20.76c-1.3,1.64-3.12,2.54-5.1,2.54-4.18,0-7.33-3.15-7.33-8.67s3.12-8.7,7.33-8.7c1.95,0,3.8.86,5.1,2.53V.03h4.38v22.85h-4.38v-2.12ZM45.21,11.68c-.72-1.1-2.3-1.88-3.77-1.88-2.47,0-4.18,1.95-4.18,4.83s1.71,4.8,4.18,4.8c1.47,0,3.05-.79,3.77-1.88v-5.86Z"/>
        <path class="cls-1" d="M54.25,23.98c1.34,1.47,3.08,2.06,5.17,2.06s4.56-.92,4.56-4.18v-1.68c-1.3,1.64-3.08,2.6-5.1,2.6-4.15,0-7.3-2.91-7.3-8.43s3.12-8.43,7.3-8.43c1.99,0,3.77.86,5.1,2.53v-2.12h4.38v15.42c0,6.3-4.86,7.84-8.94,7.84-2.84,0-5.04-.65-7.13-2.47l1.95-3.15ZM63.98,11.68c-.72-1.1-2.3-1.88-3.73-1.88-2.47,0-4.18,1.71-4.18,4.56s1.71,4.56,4.18,4.56c1.44,0,3.01-.82,3.73-1.88v-5.34Z"/>
        <path class="cls-1" d="M78.91,5.92c4.93,0,8.29,3.7,8.29,9.11v.96h-12.3c.27,2.09,1.95,3.84,4.76,3.84,1.54,0,3.36-.62,4.42-1.64l1.92,2.81c-1.64,1.51-4.25,2.3-6.82,2.3-5.04,0-8.84-3.39-8.84-8.7,0-4.8,3.53-8.67,8.56-8.67ZM74.83,13.05h8.15c-.1-1.58-1.2-3.67-4.08-3.67-2.71,0-3.87,2.02-4.08,3.67Z"/>
        <path class="cls-1" d="M89.08,6.34h4.35v2.26c1.16-1.47,3.22-2.64,5.28-2.64v4.25c-.31-.07-.72-.14-1.2-.14-1.44,0-3.36.82-4.08,1.88v10.93h-4.35V6.34Z"/>
      </g>
      <g>
        <path class="cls-1" d="M102.53,0h1.95v21.07h11.06v1.78h-13.02V0Z"/>
        <path class="cls-1" d="M115.82,14.56c0-4.83,3.12-8.67,7.95-8.67s7.98,3.84,7.98,8.67-3.08,8.7-7.98,8.7-7.95-3.87-7.95-8.7ZM129.83,14.56c0-3.67-2.16-7.06-6.06-7.06s-6.03,3.39-6.03,7.06,2.19,7.09,6.03,7.09,6.06-3.39,6.06-7.09Z"/>
        <path class="cls-1" d="M135.35,25.69c1.4,1.71,3.01,2.33,5.48,2.33,3.01,0,5.65-1.51,5.65-5.31v-2.6c-1.16,1.68-3.29,3.08-5.75,3.08-4.38,0-7.4-3.32-7.4-8.63s3.01-8.67,7.4-8.67c2.33,0,4.42,1.2,5.75,3.08v-2.67h1.82v16.37c0,5.07-3.43,6.89-7.47,6.89-2.77,0-4.56-.51-6.51-2.5l1.03-1.37ZM146.48,10.52c-.96-1.61-3.15-3.01-5.45-3.01-3.67,0-5.79,3.05-5.79,7.06s2.12,7.02,5.79,7.02c2.3,0,4.49-1.4,5.45-3.01v-8.05Z"/>
        <path class="cls-1" d="M151.27,2.12c0-.75.65-1.37,1.37-1.37s1.37.62,1.37,1.37-.62,1.37-1.37,1.37-1.37-.62-1.37-1.37ZM151.75,6.3h1.78v16.55h-1.78V6.3Z"/>
        <path class="cls-1" d="M164.12,5.89c2.84,0,4.52,1.13,5.86,2.81l-1.23,1.1c-1.23-1.64-2.71-2.29-4.52-2.29-3.87,0-6.23,3.08-6.23,7.06s2.36,7.09,6.23,7.09c1.82,0,3.29-.69,4.52-2.33l1.23,1.1c-1.34,1.71-3.01,2.84-5.86,2.84-4.86,0-8.05-3.87-8.05-8.7s3.19-8.67,8.05-8.67Z"/>
      </g>
    </g>
  </g>
</svg>