<?xml version="1.0" encoding="UTF-8"?>
<svg id="Layer_2" data-name="Layer 2" xmlns="http://www.w3.org/2000/svg" viewBox="0 0 205.6 38.06">
  <defs>
    <style>
      .cls-1 {
        fill: #6d6e70;
        stroke-width: 0px;
      }
    </style>
  </defs>
  <g id="Layer_1-2" data-name="Layer 1">
    <g>
      <g>
        <path class="cls-1" d="M3.4,20.71c2.05,2.14,5.23,3.92,9.24,3.92,3.4,0,5.06-1.61,5.06-3.27,0-2.18-2.53-2.92-5.89-3.71C7.06,16.57.96,15.26.96,8.76.96,3.92,5.14,0,11.99,0c4.62,0,8.46,1.4,11.33,4.05l-3.44,4.53c-2.35-2.18-5.49-3.18-8.33-3.18s-4.27,1.22-4.27,2.96c0,1.96,2.44,2.57,5.8,3.36,4.8,1.09,10.9,2.53,10.9,8.98,0,5.32-3.79,9.33-11.64,9.33-5.58,0-9.59-1.87-12.34-4.62l3.4-4.71Z"/>
        <path class="cls-1" d="M39.06,27.33c-1.44,1.7-3.92,2.7-6.67,2.7-3.36,0-7.32-2.27-7.32-6.98s3.97-6.71,7.32-6.71c2.79,0,5.27.87,6.67,2.57v-2.92c0-2.14-1.83-3.53-4.62-3.53-2.27,0-4.36.83-6.15,2.48l-2.09-3.71c2.57-2.27,5.89-3.31,9.2-3.31,4.8,0,9.2,1.92,9.2,7.98v13.6h-5.54v-2.18ZM39.06,21.84c-.92-1.22-2.66-1.83-4.45-1.83-2.18,0-3.97,1.13-3.97,3.18s1.79,3.1,3.97,3.1c1.79,0,3.53-.61,4.45-1.83v-2.62Z"/>
        <path class="cls-1" d="M48.47.44h5.54v29.08h-5.54V.44Z"/>
        <path class="cls-1" d="M67.43,7.93c6.28,0,10.55,4.71,10.55,11.6v1.22h-15.65c.35,2.66,2.48,4.88,6.06,4.88,1.96,0,4.27-.78,5.62-2.09l2.44,3.58c-2.09,1.92-5.41,2.92-8.68,2.92-6.41,0-11.25-4.32-11.25-11.07,0-6.1,4.49-11.03,10.9-11.03ZM62.24,17h10.38c-.13-2.01-1.53-4.66-5.19-4.66-3.44,0-4.93,2.57-5.19,4.66Z"/>
        <path class="cls-1" d="M80.94,22.89c1.53,1.44,4.66,2.88,7.28,2.88,2.4,0,3.53-.83,3.53-2.14,0-1.48-1.83-2.01-4.23-2.48-3.62-.7-8.28-1.57-8.28-6.58,0-3.53,3.1-6.63,8.63-6.63,3.57,0,6.41,1.22,8.5,2.88l-2.22,3.79c-1.26-1.35-3.66-2.44-6.23-2.44-2.01,0-3.31.74-3.31,1.96,0,1.31,1.66,1.79,4.01,2.27,3.62.7,8.46,1.66,8.46,6.89,0,3.84-3.27,6.76-9.11,6.76-3.66,0-7.19-1.22-9.42-3.27l2.4-3.88Z"/>
      </g>
      <g>
        <path class="cls-1" d="M100.69,24.06c1.87,2.18,4.93,4.23,9.07,4.23,5.97,0,7.67-3.31,7.67-5.8,0-4.1-3.92-5.23-7.98-6.32-4.58-1.26-9.46-2.57-9.46-7.93,0-4.75,4.27-7.76,9.55-7.76,4.32,0,7.59,1.53,9.85,4.1l-1.66,1.83c-2.09-2.53-5.06-3.66-8.33-3.66-3.88,0-6.8,2.22-6.8,5.36,0,3.44,3.62,4.45,7.59,5.54,4.66,1.31,9.85,2.79,9.85,8.72,0,3.71-2.48,8.2-10.33,8.2-4.8,0-8.41-1.92-10.64-4.62l1.61-1.88Z"/>
        <path class="cls-1" d="M132.33,8.46c3.62,0,5.75,1.44,7.45,3.57l-1.57,1.4c-1.57-2.09-3.44-2.92-5.75-2.92-4.93,0-7.93,3.92-7.93,8.98s3.01,9.02,7.93,9.02c2.31,0,4.19-.87,5.75-2.96l1.57,1.4c-1.7,2.18-3.84,3.62-7.45,3.62-6.19,0-10.24-4.93-10.24-11.07s4.05-11.03,10.24-11.03Z"/>
        <path class="cls-1" d="M141,19.49c0-6.15,3.97-11.03,10.11-11.03s10.16,4.88,10.16,11.03-3.92,11.07-10.16,11.07-10.11-4.93-10.11-11.07ZM158.83,19.49c0-4.66-2.75-8.98-7.72-8.98s-7.67,4.32-7.67,8.98,2.79,9.02,7.67,9.02,7.72-4.32,7.72-9.02Z"/>
        <path class="cls-1" d="M164.5,38.06V8.98h2.27v3.36c1.48-2.18,4.19-3.88,7.32-3.88,5.62,0,9.42,4.27,9.42,11.03s-3.79,11.07-9.42,11.07c-2.96,0-5.62-1.53-7.32-3.92v11.42h-2.27ZM173.7,10.51c-2.92,0-5.71,1.74-6.93,3.79v10.38c1.22,2.01,4.01,3.84,6.93,3.84,4.71,0,7.37-3.92,7.37-9.02s-2.66-8.98-7.37-8.98Z"/>
        <path class="cls-1" d="M195.66,8.46c6.41,0,9.94,5.1,9.94,11.16v.61h-17.61c.22,4.58,3.27,8.37,8.2,8.37,2.7,0,5.1-1,6.93-2.92l1.18,1.48c-2.09,2.18-4.75,3.4-8.24,3.4-6.15,0-10.55-4.58-10.55-11.07,0-6.1,4.32-11.03,10.16-11.03ZM187.99,18.44h15.3c-.04-3.57-2.4-8.02-7.67-8.02-4.97,0-7.45,4.36-7.63,8.02Z"/>
      </g>
    </g>
  </g>
</svg>