<?xml version="1.0" encoding="UTF-8"?>
<svg id="Layer_2" data-name="Layer 2" xmlns="http://www.w3.org/2000/svg" viewBox="0 0 175.84 35.34">
  <defs>
    <style>
      .cls-1 {
        fill: #6d6e70;
        stroke-width: 0px;
      }
    </style>
  </defs>
  <g id="Layer_1-2" data-name="Layer 1">
    <g>
      <path class="cls-1" d="M3.02,18.67c1.82,1.9,4.64,3.48,8.21,3.48,3.02,0,4.49-1.43,4.49-2.9,0-1.94-2.25-2.59-5.23-3.29C6.27,15,.85,13.84.85,8.07.85,3.77,4.57.29,10.64.29c4.1,0,7.51,1.24,10.06,3.6l-3.06,4.03c-2.09-1.94-4.88-2.83-7.39-2.83s-3.79,1.08-3.79,2.63c0,1.74,2.17,2.28,5.15,2.98,4.26.97,9.68,2.25,9.68,7.97,0,4.72-3.37,8.28-10.33,8.28-4.95,0-8.51-1.66-10.95-4.1l3.02-4.18Z"/>
      <path class="cls-1" d="M32.16,7.33c3.83,0,6.15,1.66,7.39,3.37l-3.21,3.02c-.89-1.32-2.24-2.01-3.95-2.01-2.98,0-5.07,2.17-5.07,5.42s2.09,5.46,5.07,5.46c1.7,0,3.06-.77,3.95-2.01l3.21,2.98c-1.24,1.74-3.56,3.41-7.39,3.41-5.77,0-9.91-4.06-9.91-9.83s4.14-9.79,9.91-9.79Z"/>
      <path class="cls-1" d="M62.11,33.61V7.8h4.92v2.36c1.43-1.82,3.48-2.82,5.77-2.82,4.8,0,8.28,3.56,8.28,9.79s-3.48,9.83-8.28,9.83c-2.21,0-4.26-.93-5.77-2.86v9.52h-4.92ZM71.24,11.71c-1.59,0-3.41.93-4.22,2.13v6.62c.81,1.16,2.63,2.13,4.22,2.13,2.83,0,4.72-2.21,4.72-5.46s-1.9-5.42-4.72-5.42Z"/>
      <path class="cls-1" d="M91.79,7.33c5.57,0,9.37,4.18,9.37,10.29v1.08h-13.89c.31,2.36,2.21,4.33,5.38,4.33,1.74,0,3.79-.7,4.99-1.86l2.17,3.17c-1.86,1.7-4.8,2.59-7.7,2.59-5.69,0-9.99-3.83-9.99-9.83,0-5.42,3.99-9.79,9.68-9.79ZM87.18,15.38h9.21c-.12-1.78-1.35-4.14-4.61-4.14-3.06,0-4.37,2.28-4.61,4.14Z"/>
      <g>
        <path class="cls-1" d="M104.26,22.45c1.66,1.93,4.37,3.75,8.05,3.75,5.3,0,6.81-2.94,6.81-5.15,0-3.64-3.48-4.64-7.08-5.61-4.06-1.12-8.4-2.28-8.4-7.04,0-4.22,3.79-6.89,8.48-6.89,3.83,0,6.73,1.35,8.75,3.64l-1.47,1.63c-1.86-2.24-4.49-3.25-7.39-3.25-3.44,0-6.04,1.97-6.04,4.76,0,3.06,3.21,3.95,6.73,4.92,4.14,1.16,8.75,2.48,8.75,7.74,0,3.29-2.21,7.28-9.17,7.28-4.26,0-7.47-1.7-9.44-4.1l1.43-1.66Z"/>
        <path class="cls-1" d="M123.8,4.33c0-.85.74-1.55,1.55-1.55s1.55.7,1.55,1.55-.7,1.55-1.55,1.55-1.55-.7-1.55-1.55ZM124.34,9.06h2.01v18.69h-2.01V9.06Z"/>
        <path class="cls-1" d="M131.5,30.96c1.59,1.94,3.41,2.63,6.19,2.63,3.41,0,6.39-1.7,6.39-6v-2.94c-1.32,1.9-3.72,3.48-6.5,3.48-4.95,0-8.36-3.75-8.36-9.75s3.41-9.79,8.36-9.79c2.63,0,4.99,1.35,6.5,3.48v-3.02h2.05v18.5c0,5.73-3.87,7.78-8.44,7.78-3.13,0-5.15-.58-7.35-2.83l1.16-1.55ZM144.08,13.82c-1.08-1.82-3.56-3.41-6.15-3.41-4.14,0-6.54,3.44-6.54,7.97s2.4,7.93,6.54,7.93c2.59,0,5.07-1.59,6.15-3.41v-9.1Z"/>
        <path class="cls-1" d="M162.65,15.02c0-3.6-1.82-4.61-4.53-4.61-2.4,0-4.88,1.55-6.08,3.21v14.13h-2.01V1.94h2.01v9.95c1.35-1.63,4.03-3.29,6.73-3.29,3.79,0,5.88,1.78,5.88,6v13.16h-2.01v-12.73Z"/>
        <path class="cls-1" d="M168.99,24.15v-13.28h-3.1v-1.82h3.1V3.95h2.05v5.11h3.79v1.82h-3.79v12.97c0,1.51.62,2.55,1.94,2.55.89,0,1.66-.43,2.09-.89l.77,1.55c-.74.7-1.63,1.16-3.17,1.16-2.48,0-3.68-1.51-3.68-4.06Z"/>
      </g>
      <path class="cls-1" d="M61.5,16.41l-1.02-1.02-4.34-4.34-.12.12-.36.36-1.15,1.13c.89,1.02,1.46,2.33,1.58,3.76h-2.12c-.09-.87-.42-1.66-.94-2.31l1.47-1.44c-.2-.23-.41-.44-.63-.64l-1.47,1.44c-.67-.56-1.5-.93-2.42-1.02-.14-.01-.29-.02-.43-.02-.16,0-.31,0-.47.02-.97.1-1.85.52-2.54,1.15l1.55,1.41c.29-.22.62-.38.99-.46.15-.03.31-.05.47-.05.15,0,.29.02.43.04.34.06.65.2.93.39.25.17.46.39.63.64.17.25.29.54.35.85.03.15.05.3.05.46s-.02.3-.04.44c-.06.3-.17.58-.33.83-.16.26-.37.48-.62.66-.28.2-.61.35-.96.41-.14.03-.28.04-.43.04-.16,0-.32-.02-.47-.05-.32-.06-.62-.19-.88-.37-.25-.17-.46-.39-.63-.64-.17-.26-.3-.56-.36-.87-.03-.14-.04-.29-.04-.44s.02-.31.05-.46c.05-.27.15-.52.28-.74l-1.55-1.41c-.45.62-.74,1.35-.82,2.15h-2.18c.11-1.35.63-2.58,1.43-3.57.19-.23.39-.45.61-.66,1.08-1.02,2.51-1.68,4.09-1.79.15,0,.29-.02.44-.02.16,0,.31,0,.46.02,1.49.1,2.84.7,3.89,1.62l1.15-1.13.38-.37.11-.1-5.52-5.52V.45c0-.25-.2-.45-.45-.45s-.45.2-.45.45v4.26l-11.7,11.7-.61.61,12.31,12.31.36.36.54-.54,5.88-5.88.64-.64,5.32-5.32.29-.29-.61-.61ZM49.98,5.85l3.1,3.1c-.95-.44-2-.71-3.1-.78v-2.32ZM49.08,5.67v2.49c-1.17.05-2.28.33-3.28.79l3.28-3.28ZM37.91,16.84l.43-.43.54-.54,2.67-2.67c-.46.99-.73,2.07-.79,3.22,0,.14,0,.28,0,.42,0,.16,0,.32.01.48,0,.16.02.32.04.48.11.96.37,1.87.76,2.72l-3.66-3.66ZM42.94,17.31h2.2c.09.87.43,1.67.96,2.32l-1.61,1.58c-.9-1.06-1.46-2.42-1.54-3.9ZM49.08,28.02l-3.32-3.32c.84.39,1.75.66,2.71.76.2.02.4.04.6.05v2.51ZM49.98,27.83v-2.34c.14,0,.28-.02.42-.04.96-.11,1.87-.37,2.72-.76l-3.13,3.13ZM49.98,23.54c-.15,0-.31.02-.46.02-.15,0-.29,0-.44-.02-1.53-.1-2.91-.72-3.98-1.68l1.62-1.58c.66.54,1.47.9,2.36.99.15.02.31.02.47.02.15,0,.29,0,.43-.02.95-.09,1.81-.48,2.49-1.08l1.64,1.49c-1.09,1.06-2.53,1.74-4.14,1.85ZM54.72,21.01l-1.63-1.48c.48-.63.79-1.39.88-2.22h2.14c-.07,1.39-.58,2.67-1.38,3.7ZM60.51,17.31l-3.2,3.2c.39-.84.66-1.75.76-2.72.02-.16.03-.32.04-.48,0-.16.01-.32.01-.48,0-.14,0-.28-.01-.42-.06-1.14-.33-2.23-.79-3.22l2.67,2.67.54.54.43.43-.47.47Z"/>
    </g>
  </g>
</svg>