<?xml version="1.0" encoding="UTF-8"?>
<svg id="Layer_2" data-name="Layer 2" xmlns="http://www.w3.org/2000/svg" viewBox="0 0 635.18 635.18">
  <defs>
    <style>
      .cls-1 {
        fill: #000;
      }

      .cls-1, .cls-2 {
        stroke-width: 0px;
      }

      .cls-2 {
        fill: #fff;
      }
    </style>
  </defs>
  <g id="Layer_1-2" data-name="Layer 1">
    <g>
      <rect class="cls-2" width="635.18" height="635.18" rx="82.25" ry="82.25"/>
      <g>
        <path class="cls-1" d="M171.44,363.83c-9.58,0-17.33-3.63-23.25-10.88-5.92-7.26-8.88-17-8.88-29.25s3.04-21.49,9.11-28.95c6.07-7.45,13.85-11.18,23.32-11.18s16.63,3.75,21.47,11.25h.44v-39.09h20.14v105.88h-19.4v-9.92h-.3c-4.94,8.1-12.49,12.14-22.66,12.14ZM175.88,346.95c5.92,0,10.44-2.02,13.55-6.07,3.11-4.05,4.66-9.63,4.66-16.73,0-16.19-5.87-24.28-17.62-24.28-5.43,0-9.58,2.17-12.44,6.52-2.86,4.35-4.29,10.12-4.29,17.33s1.41,13.13,4.22,17.18c2.81,4.05,6.79,6.07,11.92,6.07Z"/>
        <path class="cls-1" d="M291.38,352.35c-7.4,7.65-16.93,11.48-28.58,11.48s-21.18-3.82-28.58-11.48c-7.4-7.65-11.11-17.2-11.11-28.65s3.7-21,11.11-28.65c7.4-7.65,16.93-11.48,28.58-11.48s21.18,3.83,28.58,11.48c7.4,7.65,11.11,17.2,11.11,28.65s-3.7,21-11.11,28.65ZM262.8,348.43c6.02,0,10.74-2.24,14.14-6.74,3.41-4.49,5.11-10.49,5.11-17.99s-1.7-13.52-5.11-18.07c-3.41-4.54-8.12-6.81-14.14-6.81s-10.86,2.25-14.22,6.74c-3.36,4.49-5.03,10.54-5.03,18.14s1.68,13.5,5.03,17.99c3.35,4.49,8.09,6.74,14.22,6.74Z"/>
        <path class="cls-1" d="M331.51,285.64v10.37h.44c5.23-8.29,12.73-12.44,22.51-12.44,7.8,0,14.12,2.64,18.95,7.92,4.84,5.28,7.26,12.12,7.26,20.51v49.61h-20.14v-46.64c0-4.15-1.16-7.5-3.48-10.07-2.32-2.57-5.55-3.85-9.7-3.85-4.44,0-8.12,1.63-11.03,4.89-2.91,3.26-4.37,7.45-4.37,12.59v43.09h-20.14v-75.96h19.69Z"/>
        <path class="cls-1" d="M428.8,363.83c-12.24,0-21.87-3.78-28.88-11.33-7.01-7.55-10.51-17.2-10.51-28.95s3.5-20.85,10.51-28.5c7.01-7.65,15.99-11.48,26.95-11.48,11.94,0,21.18,4.15,27.69,12.44,6.52,8.29,9.77,19.4,9.77,33.32h-55.08c.79,6.02,2.81,10.69,6.07,13.99,3.26,3.31,7.7,4.96,13.33,4.96,7.4,0,12.29-3.11,14.66-9.33h19.84c-1.48,7.11-5.23,13.03-11.25,17.77-6.02,4.74-13.72,7.11-23.1,7.11ZM427.17,299.12c-9.77,0-15.65,5.43-17.62,16.29h33.76c-.3-4.84-1.93-8.76-4.89-11.77-2.96-3.01-6.71-4.52-11.25-4.52Z"/>
        <path class="cls-1" d="M471.74,361.61v-21.47h21.62v21.47h-21.62Z"/>
      </g>
    </g>
  </g>
</svg>