<?xml version="1.0" encoding="UTF-8"?>
<svg id="Layer_2" data-name="Layer 2" xmlns="http://www.w3.org/2000/svg" viewBox="0 0 1410.22 520.23">
  <defs>
    <style>
      .cls-1 {
        fill: #231f20;
      }

      .cls-1, .cls-2 {
        stroke-width: 0px;
      }

      .cls-2 {
        fill: #fff;
      }
    </style>
  </defs>
  <g id="Layer_1-2" data-name="Layer 1">
    <g>
      <g>
        <path class="cls-1" d="M678.67,366.44c-21.76,0-39.37-8.24-52.83-24.73-13.46-16.49-20.19-38.64-20.19-66.46s6.9-48.84,20.7-65.79c13.8-16.94,31.46-25.41,53-25.41s37.8,8.53,48.79,25.57h1.01v-88.84h45.76v240.6h-44.08v-22.55h-.67c-11.22,18.4-28.38,27.59-51.48,27.59ZM688.77,328.08c13.46,0,23.72-4.6,30.79-13.8,7.07-9.2,10.6-21.87,10.6-38.02,0-36.79-13.35-55.19-40.04-55.19-12.34,0-21.76,4.94-28.27,14.81-6.51,9.87-9.76,23-9.76,39.37s3.2,29.84,9.59,39.03c6.39,9.2,15.42,13.8,27.09,13.8Z"/>
        <path class="cls-1" d="M951.24,340.37c-16.83,17.39-38.48,26.08-64.95,26.08s-48.12-8.69-64.94-26.08c-16.82-17.38-25.24-39.09-25.24-65.11s8.41-47.73,25.24-65.11c16.83-17.38,38.47-26.08,64.94-26.08s48.12,8.7,64.95,26.08c16.82,17.39,25.24,39.09,25.24,65.11s-8.41,47.73-25.24,65.11ZM886.29,331.45c13.68,0,24.4-5.1,32.14-15.31,7.74-10.21,11.61-23.83,11.61-40.88s-3.87-30.73-11.61-41.05c-7.74-10.32-18.45-15.48-32.14-15.48s-24.68,5.11-32.3,15.31c-7.63,10.21-11.44,23.95-11.44,41.22s3.81,30.68,11.44,40.88c7.62,10.21,18.39,15.31,32.3,15.31Z"/>
        <path class="cls-1" d="M1042.42,188.77v23.56h1.01c11.89-18.84,28.94-28.27,51.15-28.27,17.72,0,32.08,6,43.07,18,10.99,12,16.49,27.54,16.49,46.6v112.73h-45.76v-106c0-9.42-2.64-17.05-7.91-22.88-5.27-5.83-12.62-8.75-22.04-8.75-10.1,0-18.46,3.7-25.07,11.1-6.62,7.4-9.93,16.94-9.93,28.6v97.92h-45.76v-172.62h44.75Z"/>
        <path class="cls-1" d="M1263.5,366.44c-27.82,0-49.69-8.58-65.62-25.74-15.93-17.16-23.89-39.09-23.89-65.79s7.96-47.39,23.89-64.78c15.93-17.38,36.34-26.08,61.24-26.08,27.14,0,48.12,9.42,62.93,28.27s22.21,44.08,22.21,75.71h-125.18c1.79,13.69,6.39,24.29,13.8,31.8,7.4,7.52,17.5,11.27,30.29,11.27,16.83,0,27.93-7.07,33.31-21.2h45.09c-3.36,16.15-11.89,29.61-25.57,40.38-13.69,10.77-31.18,16.15-52.49,16.15ZM1259.8,219.39c-22.21,0-35.56,12.34-40.04,37.02h76.72c-.67-10.99-4.37-19.91-11.1-26.75-6.73-6.84-15.26-10.26-25.57-10.26Z"/>
        <path class="cls-1" d="M1361.09,361.4v-48.79h49.13v48.79h-49.13Z"/>
      </g>
      <g>
        <rect class="cls-1" x="0" y="0" width="520.23" height="520.23" rx="254.2" ry="254.2"/>
        <g>
          <path class="cls-2" d="M140.41,297.98c-7.84,0-14.19-2.97-19.04-8.91-4.85-5.94-7.28-13.93-7.28-23.95s2.49-17.6,7.46-23.71c4.97-6.1,11.34-9.16,19.1-9.16s13.62,3.07,17.59,9.22h.36v-32.02h16.49v86.71h-15.89v-8.13h-.24c-4.04,6.63-10.23,9.94-18.56,9.94ZM144.05,284.16c4.85,0,8.55-1.66,11.1-4.97,2.55-3.31,3.82-7.88,3.82-13.7,0-13.26-4.81-19.89-14.43-19.89-4.45,0-7.84,1.78-10.19,5.34-2.35,3.56-3.52,8.29-3.52,14.19s1.15,10.75,3.46,14.07c2.3,3.32,5.56,4.97,9.76,4.97Z"/>
          <path class="cls-2" d="M238.65,288.58c-6.06,6.27-13.87,9.4-23.41,9.4s-17.34-3.13-23.41-9.4c-6.06-6.26-9.1-14.09-9.1-23.47s3.03-17.2,9.1-23.47c6.06-6.26,13.87-9.4,23.41-9.4s17.34,3.13,23.41,9.4c6.06,6.27,9.1,14.09,9.1,23.47s-3.03,17.2-9.1,23.47ZM215.24,285.37c4.93,0,8.79-1.84,11.58-5.52,2.79-3.68,4.18-8.59,4.18-14.74s-1.39-11.08-4.18-14.8c-2.79-3.72-6.65-5.58-11.58-5.58s-8.9,1.84-11.64,5.52c-2.75,3.68-4.12,8.63-4.12,14.86s1.37,11.06,4.12,14.74c2.75,3.68,6.63,5.52,11.64,5.52Z"/>
          <path class="cls-2" d="M271.51,233.95v8.49h.36c4.28-6.79,10.43-10.19,18.43-10.19,6.39,0,11.56,2.16,15.52,6.49,3.96,4.33,5.94,9.93,5.94,16.8v40.63h-16.49v-38.2c0-3.4-.95-6.14-2.85-8.25-1.9-2.1-4.55-3.15-7.94-3.15-3.64,0-6.65,1.33-9.04,4-2.39,2.67-3.58,6.11-3.58,10.31v35.29h-16.49v-62.22h16.13Z"/>
          <path class="cls-2" d="M351.19,297.98c-10.03,0-17.91-3.09-23.65-9.28-5.74-6.19-8.61-14.09-8.61-23.71s2.87-17.08,8.61-23.35c5.74-6.26,13.1-9.4,22.07-9.4,9.78,0,17.34,3.4,22.68,10.19,5.34,6.79,8,15.89,8,27.29h-45.12c.65,4.93,2.3,8.75,4.97,11.46,2.67,2.71,6.31,4.06,10.92,4.06,6.06,0,10.07-2.55,12.01-7.64h16.25c-1.21,5.82-4.29,10.67-9.22,14.55-4.93,3.88-11.24,5.82-18.92,5.82ZM349.86,244.98c-8,0-12.82,4.45-14.43,13.34h27.65c-.24-3.96-1.58-7.17-4-9.64-2.43-2.47-5.5-3.7-9.22-3.7Z"/>
          <path class="cls-2" d="M386.37,296.16v-17.59h17.71v17.59h-17.71Z"/>
        </g>
      </g>
    </g>
  </g>
</svg>