<?xml version="1.0" encoding="UTF-8"?>
<svg id="Layer_2" data-name="Layer 2" xmlns="http://www.w3.org/2000/svg" viewBox="0 0 981.32 480.81">
  <defs>
    <style>
      .cls-1 {
        opacity: 0;
      }

      .cls-1, .cls-2 {
        fill: #fff;
        stroke-width: 0px;
      }
    </style>
  </defs>
  <g id="Layer_1-2" data-name="Layer 1">
    <g>
      <rect class="cls-1" width="981.32" height="480.81"/>
      <g>
        <g>
          <path class="cls-2" d="M74.26,441.22v-37.57h23.74v6.94h-16.43v9.27h14.62v6.73h-14.57v14.62h-7.37Z"/>
          <path class="cls-2" d="M109.87,441.22v-37.57h7.31v30.57h16.74v6.99h-24.06Z"/>
          <path class="cls-2" d="M141.92,422.46c0-3.04.53-5.77,1.59-8.19,1.06-2.42,2.47-4.48,4.24-6.17s3.81-2.99,6.14-3.9c2.33-.9,4.77-1.35,7.31-1.35s4.99.45,7.34,1.35c2.35.9,4.41,2.2,6.17,3.9s3.18,3.75,4.24,6.17c1.06,2.42,1.59,5.15,1.59,8.19s-.53,5.76-1.59,8.16c-1.06,2.4-2.47,4.45-4.24,6.15-1.77,1.69-3.82,2.99-6.17,3.89-2.35.9-4.8,1.35-7.34,1.35s-4.98-.45-7.31-1.35c-2.33-.9-4.38-2.2-6.14-3.89-1.77-1.7-3.18-3.74-4.24-6.15-1.06-2.4-1.59-5.12-1.59-8.16ZM149.5,422.41c0,2.12.33,3.96,1.01,5.54.67,1.57,1.56,2.87,2.67,3.9,1.11,1.03,2.37,1.79,3.76,2.31,1.4.51,2.82.77,4.27.77s2.88-.26,4.29-.77c1.41-.51,2.68-1.28,3.79-2.31,1.11-1.03,2-2.32,2.68-3.9.67-1.57,1.01-3.42,1.01-5.54s-.34-3.96-1.01-5.54c-.67-1.57-1.56-2.87-2.68-3.9-1.11-1.03-2.37-1.79-3.79-2.31-1.41-.51-2.84-.77-4.29-.77s-2.87.26-4.27.77c-1.4.51-2.65,1.28-3.76,2.31-1.11,1.03-2,2.32-2.67,3.9-.67,1.57-1.01,3.42-1.01,5.54Z"/>
          <path class="cls-2" d="M203.92,426.76h-3.81v14.47h-7.37v-37.57h14.68c1.84,0,3.49.3,4.95.9,1.47.6,2.72,1.41,3.76,2.44s1.85,2.24,2.41,3.66.85,2.93.85,4.56c0,2.65-.72,4.91-2.14,6.78-1.43,1.87-3.38,3.16-5.86,3.87l8.05,15.37h-8.16l-7.36-14.47ZM206.04,420.45c1.87,0,3.32-.48,4.35-1.43s1.54-2.21,1.54-3.76-.51-2.86-1.54-3.82-2.47-1.43-4.35-1.43h-5.93v10.44h5.93Z"/>
          <path class="cls-2" d="M231.68,441.22v-37.57h7.42v37.57h-7.42Z"/>
          <path class="cls-2" d="M253.51,441.22v-37.57h13.46c2.68,0,5.16.42,7.42,1.27,2.26.85,4.21,2.08,5.85,3.68,1.64,1.61,2.93,3.58,3.87,5.91s1.41,4.98,1.41,7.95-.47,5.62-1.41,7.95-2.23,4.29-3.89,5.88c-1.66,1.59-3.62,2.81-5.88,3.66-2.26.85-4.73,1.27-7.42,1.27h-13.41ZM266.66,434.44c1.52,0,2.97-.24,4.35-.72,1.38-.48,2.58-1.21,3.6-2.2,1.03-.99,1.84-2.23,2.44-3.73.6-1.5.9-3.28.9-5.32s-.3-3.82-.9-5.33c-.6-1.5-1.4-2.75-2.41-3.73s-2.2-1.73-3.58-2.23c-1.38-.49-2.83-.74-4.35-.74h-5.88v24h5.83Z"/>
          <path class="cls-2" d="M318.26,432.64h-15.26l-3.13,8.58h-7.74l14.41-37.57h8.48l14.31,37.57h-7.95l-3.13-8.58ZM305.44,425.96h10.39l-5.19-14.2-5.19,14.2Z"/>
          <path class="cls-2" d="M358.9,441.22v-37.57h7.31v30.57h16.74v6.99h-24.06Z"/>
          <path class="cls-2" d="M394.41,441.22v-37.57h23.53v6.89h-16.21v8.58h14.68v6.52h-14.68v8.69h16.21v6.89h-23.53Z"/>
          <path class="cls-2" d="M453.44,432.64h-15.26l-3.13,8.58h-7.74l14.41-37.57h8.48l14.31,37.57h-7.95l-3.13-8.58ZM440.61,425.96h10.39l-5.19-14.2-5.19,14.2Z"/>
          <path class="cls-2" d="M501.44,441.22l-.48-4.29c-.42.64-.97,1.26-1.64,1.88-.67.62-1.48,1.17-2.41,1.64-.94.48-1.99.86-3.15,1.14s-2.46.42-3.87.42c-2.54,0-4.95-.45-7.21-1.35-2.26-.9-4.25-2.19-5.96-3.87-1.71-1.68-3.07-3.73-4.08-6.15-1.01-2.42-1.51-5.15-1.51-8.18s.52-5.77,1.56-8.19c1.04-2.42,2.45-4.48,4.24-6.17s3.83-2.99,6.15-3.9c2.31-.9,4.74-1.35,7.28-1.35s4.67.33,6.6.98c1.92.65,3.59,1.53,5.01,2.62,1.41,1.1,2.58,2.33,3.5,3.71.92,1.38,1.61,2.79,2.07,4.24l-7,2.49c-.25-.85-.63-1.69-1.14-2.54-.51-.85-1.18-1.62-2.01-2.31-.83-.69-1.83-1.25-2.99-1.69s-2.51-.66-4.03-.66c-1.41,0-2.83.25-4.24.74-1.41.5-2.68,1.26-3.79,2.31-1.11,1.04-2.02,2.37-2.73,3.97s-1.06,3.52-1.06,5.75.32,3.98.98,5.59,1.52,2.95,2.6,4.03c1.08,1.08,2.33,1.89,3.76,2.44,1.43.55,2.94.82,4.53.82,1.73,0,3.21-.26,4.45-.77,1.24-.51,2.25-1.14,3.05-1.88.79-.74,1.4-1.54,1.8-2.38.41-.85.66-1.61.77-2.28h-11.87v-6.36h18.76v19.55h-5.93Z"/>
          <path class="cls-2" d="M534.61,442.07c-2.01,0-3.89-.3-5.64-.9s-3.27-1.5-4.56-2.7c-1.29-1.2-2.31-2.68-3.07-4.45-.76-1.77-1.14-3.8-1.14-6.09v-24.27h7.31v23.74c0,2.47.63,4.34,1.91,5.62s3,1.91,5.19,1.91,3.97-.64,5.25-1.91c1.27-1.27,1.91-3.14,1.91-5.62v-23.74h7.31v24.27c0,2.3-.38,4.33-1.14,6.09s-1.78,3.25-3.07,4.45c-1.29,1.2-2.82,2.1-4.59,2.7s-3.66.9-5.67.9Z"/>
          <path class="cls-2" d="M563.12,441.22v-37.57h23.53v6.89h-16.21v8.58h14.68v6.52h-14.68v8.69h16.21v6.89h-23.53Z"/>
          <path class="cls-2" d="M616.47,422.46c0-3.04.53-5.77,1.59-8.19,1.06-2.42,2.47-4.48,4.24-6.17s3.81-2.99,6.14-3.9c2.33-.9,4.77-1.35,7.31-1.35s4.99.45,7.34,1.35c2.35.9,4.41,2.2,6.17,3.9s3.18,3.75,4.24,6.17c1.06,2.42,1.59,5.15,1.59,8.19s-.53,5.76-1.59,8.16c-1.06,2.4-2.47,4.45-4.24,6.15-1.77,1.69-3.82,2.99-6.17,3.89-2.35.9-4.8,1.35-7.34,1.35s-4.98-.45-7.31-1.35c-2.33-.9-4.38-2.2-6.14-3.89-1.77-1.7-3.18-3.74-4.24-6.15-1.06-2.4-1.59-5.12-1.59-8.16ZM624.05,422.41c0,2.12.33,3.96,1.01,5.54.67,1.57,1.56,2.87,2.67,3.9,1.11,1.03,2.37,1.79,3.76,2.31,1.4.51,2.82.77,4.27.77s2.88-.26,4.29-.77c1.41-.51,2.68-1.28,3.79-2.31,1.11-1.03,2-2.32,2.68-3.9.67-1.57,1.01-3.42,1.01-5.54s-.34-3.96-1.01-5.54c-.67-1.57-1.56-2.87-2.68-3.9-1.11-1.03-2.37-1.79-3.79-2.31-1.41-.51-2.84-.77-4.29-.77s-2.87.26-4.27.77c-1.4.51-2.65,1.28-3.76,2.31-1.11,1.03-2,2.32-2.67,3.9-.67,1.57-1.01,3.42-1.01,5.54Z"/>
          <path class="cls-2" d="M667.29,441.22v-37.57h23.74v6.94h-16.43v9.27h14.62v6.73h-14.57v14.62h-7.37Z"/>
          <path class="cls-2" d="M733.52,442.02c-2.61,0-5.09-.46-7.42-1.38s-4.37-2.23-6.12-3.92-3.14-3.74-4.16-6.15c-1.03-2.4-1.54-5.1-1.54-8.11s.52-5.71,1.56-8.13c1.04-2.42,2.45-4.48,4.21-6.17,1.77-1.7,3.81-3,6.12-3.92s4.72-1.38,7.23-1.38,4.86.36,6.86,1.09,3.69,1.68,5.09,2.86,2.53,2.52,3.39,4c.87,1.49,1.49,2.99,1.88,4.5l-6.89,2.17c-.21-.88-.56-1.78-1.06-2.7-.5-.92-1.16-1.73-1.99-2.44-.83-.71-1.85-1.29-3.05-1.75-1.2-.46-2.61-.69-4.24-.69-1.41,0-2.81.26-4.19.77-1.38.51-2.61,1.28-3.71,2.31s-1.98,2.33-2.65,3.92c-.67,1.59-1.01,3.45-1.01,5.56s.32,3.79.98,5.32,1.52,2.83,2.6,3.87c1.08,1.04,2.31,1.84,3.71,2.38,1.4.55,2.85.82,4.37.82s3-.24,4.21-.71c1.22-.48,2.25-1.09,3.1-1.83.85-.74,1.54-1.56,2.07-2.46.53-.9.92-1.79,1.17-2.68l6.84,2.07c-.36,1.45-.96,2.92-1.83,4.42-.86,1.5-2.01,2.87-3.44,4.11-1.43,1.23-3.14,2.25-5.14,3.05-2,.79-4.32,1.19-6.97,1.19Z"/>
          <path class="cls-2" d="M762.82,441.22v-37.57h7.42v37.57h-7.42Z"/>
          <path class="cls-2" d="M800.45,410.59v30.63h-7.37v-30.63h-11.87v-6.94h31.1v6.94h-11.87Z"/>
          <path class="cls-2" d="M823.28,441.22v-37.57h7.42v37.57h-7.42Z"/>
          <path class="cls-2" d="M845.11,441.22v-37.57h23.53v6.89h-16.21v8.58h14.68v6.52h-14.68v8.69h16.21v6.89h-23.53Z"/>
          <path class="cls-2" d="M900.48,414.62c-.11-.53-.29-1.1-.56-1.72s-.66-1.19-1.19-1.72c-.53-.53-1.21-.97-2.04-1.32-.83-.35-1.85-.53-3.04-.53-.88,0-1.69.13-2.41.4-.72.27-1.34.62-1.85,1.06-.51.44-.91.95-1.19,1.51-.28.56-.42,1.17-.42,1.8,0,1.03.33,1.92,1,2.68.67.76,1.7,1.28,3.08,1.56l5.25,1.01c1.69.32,3.2.83,4.5,1.54s2.4,1.55,3.28,2.52c.88.97,1.55,2.06,2.01,3.26.46,1.2.69,2.46.69,3.76,0,1.45-.3,2.87-.9,4.27s-1.47,2.63-2.62,3.71c-1.15,1.08-2.56,1.95-4.24,2.62-1.68.67-3.61,1.01-5.8,1.01-2.51,0-4.66-.36-6.46-1.09-1.8-.72-3.31-1.65-4.53-2.78s-2.14-2.39-2.78-3.79-1.03-2.77-1.17-4.11l6.78-1.8c.07.92.29,1.8.66,2.65.37.85.89,1.6,1.56,2.25.67.65,1.5,1.17,2.49,1.56s2.15.58,3.5.58c1.98,0,3.49-.43,4.53-1.3,1.04-.86,1.56-1.97,1.56-3.31,0-1.09-.39-2.04-1.17-2.83s-1.91-1.33-3.39-1.62l-5.25-1.06c-3-.6-5.4-1.83-7.18-3.68-1.78-1.85-2.67-4.21-2.67-7.07,0-1.66.34-3.21,1.03-4.64.69-1.43,1.63-2.68,2.83-3.74,1.2-1.06,2.6-1.89,4.18-2.49,1.59-.6,3.27-.9,5.04-.9,2.26,0,4.19.31,5.8.93,1.61.62,2.94,1.4,4,2.36,1.06.95,1.88,2.01,2.46,3.15.58,1.15.98,2.25,1.19,3.31l-6.57,2.01Z"/>
        </g>
        <path class="cls-2" d="M244.79,271.2c-10.92-5.33-23.84-6.81-35.85-6.81-10.72,0-21.82,1.28-31.9,5.12-6.3,2.4-17.47,8.02-14.51,16.62.53,1.55,1.51,2.89,2.48,4.21,13.3,18.04,27.46,35.49,41.2,53.19,1.11,1.43,3.28,1.45,4.4.02,14.47-18.2,29.24-36.2,43.36-54.68,1.4-1.83,1.96-3.62,1.91-5.34-.15-5.4-6.29-9.99-11.09-12.33Z"/>
        <g>
          <path class="cls-2" d="M192.64,76.63c3.94-.89,9.44-1.78,15.68-1.78,6.59,0,12.69.99,16.97,1.93,2.32.51,4.12-1.98,2.94-4.04l-8.02-13.89-8.93-15.46c-1.05-1.82-3.68-1.82-4.73,0l-8.93,15.46-7.93,13.73c-1.19,2.06.63,4.57,2.95,4.05Z"/>
          <path class="cls-2" d="M156.93,84.61l-14.9-5.95-16.58-6.62c-1.95-.78-4.02.85-3.72,2.93l2.56,17.67,2.27,15.69c.34,2.35,3.33,3.2,4.82,1.35,2.54-3.14,6.31-7.24,11.21-11.11,5.18-4.08,10.58-7.07,14.53-8.99,2.14-1.04,2.01-4.11-.19-4.99Z"/>
          <path class="cls-2" d="M100.06,177.87c1.81,1.54,4.61.22,4.52-2.16-.15-4.04-.02-9.6,1.12-15.74,1.21-6.48,3.3-12.29,5.01-16.33.92-2.19-1.19-4.42-3.43-3.63l-15.13,5.34-16.84,5.94c-1.98.7-2.47,3.29-.87,4.65l13.57,11.61,12.05,10.31Z"/>
          <path class="cls-2" d="M342.8,151.3l-16.84-5.94-15.13-5.34c-2.24-.79-4.35,1.44-3.43,3.63,1.71,4.04,3.8,9.85,5.01,16.33,1.14,6.14,1.28,11.71,1.12,15.74-.09,2.37,2.71,3.7,4.52,2.16l12.05-10.31,13.57-11.61c1.6-1.37,1.12-3.95-.87-4.65Z"/>
          <path class="cls-2" d="M295.64,111.37l2.94-13.66,3.27-19.67c.39-2.07-1.61-3.78-3.6-3.08l-16.84,5.94-14.95,5.28c-2.24.79-2.49,3.88-.39,4.99,3.57,1.88,8.33,4.78,13.07,8.84,5.01,4.29,8.99,9.01,11.64,12.51,1.43,1.89,4.42,1.18,4.86-1.16Z"/>
          <path class="cls-2" d="M115.02,231.36c-3.08-5.83-5.04-11.69-6.21-15.91-.63-2.29-3.68-2.72-4.94-.71l-8.54,13.58-9.51,15.11c-1.12,1.78.11,4.11,2.21,4.19l17.84.68,15.85.6c2.37.09,3.75-2.69,2.2-4.5-2.63-3.07-5.98-7.51-8.89-13.03Z"/>
          <path class="cls-2" d="M320.19,225.48l-9.6-12.62c-1.44-1.89-4.46-1.18-4.87,1.16-.7,3.98-2,9.39-4.42,15.15-2.55,6.08-5.82,11.32-8.35,14.91-1.36,1.94.23,4.57,2.59,4.27l15.91-2.02,17.71-2.25c2.09-.27,3.1-2.69,1.83-4.37l-10.81-14.21Z"/>
          <circle class="cls-2" cx="209.25" cy="181" r="59.8" transform="translate(-35.99 52.92) rotate(-13.28)"/>
        </g>
        <g>
          <path class="cls-2" d="M519.99,155.34h-129.54c-3.19,0-5.78,2.59-5.78,5.78v180.61c0,3.19,2.59,5.78,5.78,5.78h26.73c3.19,0,5.78-2.59,5.78-5.78v-66.26c0-3.19,2.59-5.78,5.78-5.78h84.79c3.2,0,5.78-2.59,5.78-5.78v-23.71c0-3.19-2.59-5.78-5.78-5.78h-84.79c-3.19,0-5.78-2.59-5.78-5.78v-32.22c0-3.19,2.59-5.78,5.78-5.78h91.25c3.19,0,5.78-2.59,5.78-5.78v-23.71c0-3.19-2.59-5.78-5.78-5.78Z"/>
          <path class="cls-2" d="M702.03,311.69h-97.05c-1.25,0-2.26-1.01-2.26-2.27v-151.82c0-1.25-1.01-2.27-2.27-2.27h-33.77c-1.25,0-2.27,1.01-2.27,2.27v187.65c0,1.25,1.01,2.27,2.27,2.27h135.35c1.25,0,2.26-1.01,2.26-2.27v-31.3c0-1.25-1.01-2.27-2.26-2.27Z"/>
          <path class="cls-2" d="M907.49,192.92c-16.01-25.74-46.64-41.16-81.19-41.16-59.16,0-100.89,41.87-100.89,99.66s41.73,99.66,100.89,99.66c34.26,0,62.65-14.88,79.83-38.77.73-1.02.48-2.45-.54-3.18l-27.63-19.88c-1.01-.73-2.4-.48-3.14.52-11.51,15.61-28.31,24.52-48.79,24.52-33.91,0-60.54-24.3-60.67-62.87,0-37.34,25.81-62.87,60.67-62.87,20.64,0,37.58,9.18,48.49,24.72.69.98,2,1.29,3.02.66l29.19-17.88c1.07-.65,1.43-2.07.77-3.13Z"/>
        </g>
      </g>
    </g>
  </g>
</svg>