<?xml version="1.0" encoding="UTF-8"?>
<svg id="Layer_2" data-name="Layer 2" xmlns="http://www.w3.org/2000/svg" viewBox="0 0 791.04 791.04">
  <defs>
    <style>
      .cls-1 {
        fill: #fff;
        opacity: 0;
      }

      .cls-1, .cls-2, .cls-3 {
        stroke-width: 0px;
      }

      .cls-2 {
        fill: #2e55a5;
      }

      .cls-3 {
        fill: #ffe000;
      }
    </style>
  </defs>
  <g id="Layer_1-2" data-name="Layer 1">
    <g>
      <rect class="cls-1" width="791.04" height="791.04"/>
      <g>
        <g>
          <path class="cls-2" d="M80.51,546.2v-28.42h17.96v5.25h-12.43v7.02h11.06v5.09h-11.02v11.06h-5.57Z"/>
          <path class="cls-2" d="M107.45,546.2v-28.42h5.53v23.13h12.67v5.29h-18.2Z"/>
          <path class="cls-2" d="M131.7,532.01c0-2.3.4-4.36,1.2-6.19.8-1.83,1.87-3.39,3.21-4.67s2.89-2.26,4.65-2.95c1.76-.68,3.61-1.02,5.53-1.02s3.77.34,5.55,1.02c1.78.68,3.33,1.66,4.67,2.95s2.41,2.84,3.21,4.67c.8,1.83,1.2,3.89,1.2,6.19s-.4,4.35-1.2,6.17c-.8,1.82-1.87,3.37-3.21,4.65-1.34,1.28-2.89,2.26-4.67,2.95-1.78.68-3.63,1.02-5.55,1.02s-3.77-.34-5.53-1.02c-1.76-.68-3.31-1.66-4.65-2.95-1.34-1.28-2.41-2.83-3.21-4.65-.8-1.82-1.2-3.88-1.2-6.17ZM137.43,531.97c0,1.6.25,3,.76,4.19.51,1.19,1.18,2.17,2.02,2.95.84.78,1.79,1.36,2.85,1.74,1.06.39,2.13.58,3.23.58s2.18-.19,3.25-.58c1.07-.39,2.02-.97,2.87-1.74.84-.78,1.52-1.76,2.02-2.95.51-1.19.76-2.59.76-4.19s-.26-3-.76-4.19c-.51-1.19-1.18-2.17-2.02-2.95-.84-.78-1.8-1.36-2.87-1.74-1.07-.39-2.15-.58-3.25-.58s-2.17.19-3.23.58c-1.06.39-2,.97-2.85,1.74-.84.78-1.52,1.76-2.02,2.95-.51,1.19-.76,2.59-.76,4.19Z"/>
          <path class="cls-2" d="M178.6,535.26h-2.89v10.94h-5.57v-28.42h11.1c1.39,0,2.64.23,3.75.68,1.11.45,2.06,1.07,2.85,1.84s1.4,1.7,1.82,2.77.64,2.22.64,3.45c0,2-.54,3.71-1.62,5.13-1.08,1.42-2.56,2.39-4.43,2.93l6.09,11.63h-6.17l-5.57-10.94ZM180.2,530.49c1.42,0,2.51-.36,3.29-1.08s1.16-1.67,1.16-2.84-.39-2.17-1.16-2.89-1.87-1.08-3.29-1.08h-4.49v7.9h4.49Z"/>
          <path class="cls-2" d="M199.6,546.2v-28.42h5.61v28.42h-5.61Z"/>
          <path class="cls-2" d="M216.12,546.2v-28.42h10.18c2.03,0,3.9.32,5.61.96,1.71.64,3.19,1.57,4.43,2.79,1.24,1.22,2.22,2.71,2.93,4.47s1.06,3.77,1.06,6.01-.36,4.25-1.06,6.01-1.69,3.25-2.95,4.45c-1.26,1.2-2.74,2.13-4.45,2.77-1.71.64-3.58.96-5.61.96h-10.14ZM226.06,541.07c1.15,0,2.25-.18,3.29-.54,1.04-.36,1.95-.91,2.72-1.66.78-.75,1.39-1.69,1.84-2.83.45-1.14.68-2.48.68-4.03s-.23-2.89-.68-4.03c-.45-1.14-1.06-2.08-1.82-2.83s-1.66-1.31-2.71-1.68c-1.04-.37-2.14-.56-3.29-.56h-4.45v18.16h4.41Z"/>
          <path class="cls-2" d="M265.1,539.71h-11.54l-2.36,6.49h-5.85l10.9-28.42h6.41l10.82,28.42h-6.01l-2.36-6.49ZM255.4,534.66h7.86l-3.93-10.74-3.93,10.74Z"/>
          <path class="cls-2" d="M295.85,546.2v-28.42h5.53v23.13h12.67v5.29h-18.2Z"/>
          <path class="cls-2" d="M322.71,546.2v-28.42h17.8v5.21h-12.27v6.49h11.1v4.93h-11.1v6.57h12.27v5.21h-17.8Z"/>
          <path class="cls-2" d="M367.36,539.71h-11.54l-2.36,6.49h-5.85l10.9-28.42h6.41l10.82,28.42h-6.01l-2.36-6.49ZM357.66,534.66h7.86l-3.93-10.74-3.93,10.74Z"/>
          <path class="cls-2" d="M403.68,546.2l-.36-3.25c-.32.48-.73.96-1.24,1.42-.51.47-1.12.88-1.83,1.24-.71.36-1.5.65-2.38.86s-1.86.32-2.93.32c-1.92,0-3.74-.34-5.45-1.02-1.71-.68-3.21-1.66-4.51-2.93-1.3-1.27-2.32-2.82-3.09-4.65-.76-1.83-1.14-3.89-1.14-6.19s.39-4.36,1.18-6.19c.79-1.83,1.86-3.39,3.21-4.67s2.9-2.26,4.65-2.95c1.75-.68,3.59-1.02,5.51-1.02s3.53.25,4.99.74c1.46.5,2.72,1.16,3.79,1.98,1.07.83,1.95,1.77,2.65,2.81.69,1.04,1.22,2.11,1.56,3.21l-5.29,1.88c-.19-.64-.47-1.28-.86-1.92-.39-.64-.9-1.22-1.52-1.74-.63-.52-1.38-.95-2.26-1.28s-1.9-.5-3.05-.5c-1.07,0-2.14.19-3.21.56-1.07.38-2.02.96-2.87,1.74-.84.79-1.53,1.79-2.07,3.01s-.8,2.66-.8,4.35.25,3.01.74,4.23,1.15,2.23,1.96,3.05c.81.82,1.76,1.43,2.85,1.84,1.08.41,2.22.62,3.43.62,1.31,0,2.43-.19,3.37-.58.94-.39,1.7-.86,2.31-1.42.6-.56,1.06-1.16,1.36-1.8.31-.64.5-1.22.58-1.72h-8.98v-4.81h14.19v14.79h-4.49Z"/>
          <path class="cls-2" d="M428.77,546.84c-1.52,0-2.95-.23-4.27-.68s-2.47-1.14-3.45-2.04c-.98-.91-1.75-2.03-2.32-3.37-.58-1.34-.86-2.87-.86-4.61v-18.36h5.53v17.96c0,1.87.48,3.29,1.44,4.25s2.27,1.44,3.93,1.44,3.01-.48,3.97-1.44c.96-.96,1.44-2.38,1.44-4.25v-17.96h5.53v18.36c0,1.74-.29,3.27-.86,4.61s-1.35,2.46-2.32,3.37c-.98.91-2.13,1.59-3.47,2.04s-2.77.68-4.29.68Z"/>
          <path class="cls-2" d="M450.34,546.2v-28.42h17.8v5.21h-12.27v6.49h11.1v4.93h-11.1v6.57h12.27v5.21h-17.8Z"/>
          <path class="cls-2" d="M490.7,532.01c0-2.3.4-4.36,1.2-6.19.8-1.83,1.87-3.39,3.21-4.67s2.89-2.26,4.65-2.95c1.76-.68,3.61-1.02,5.53-1.02s3.77.34,5.55,1.02c1.78.68,3.33,1.66,4.67,2.95s2.41,2.84,3.21,4.67c.8,1.83,1.2,3.89,1.2,6.19s-.4,4.35-1.2,6.17c-.8,1.82-1.87,3.37-3.21,4.65-1.34,1.28-2.89,2.26-4.67,2.95-1.78.68-3.63,1.02-5.55,1.02s-3.77-.34-5.53-1.02c-1.76-.68-3.31-1.66-4.65-2.95-1.34-1.28-2.41-2.83-3.21-4.65-.8-1.82-1.2-3.88-1.2-6.17ZM496.44,531.97c0,1.6.25,3,.76,4.19.51,1.19,1.18,2.17,2.02,2.95.84.78,1.79,1.36,2.85,1.74,1.06.39,2.13.58,3.23.58s2.18-.19,3.25-.58c1.07-.39,2.02-.97,2.87-1.74.84-.78,1.52-1.76,2.02-2.95.51-1.19.76-2.59.76-4.19s-.26-3-.76-4.19c-.51-1.19-1.18-2.17-2.02-2.95-.84-.78-1.8-1.36-2.87-1.74-1.07-.39-2.15-.58-3.25-.58s-2.17.19-3.23.58c-1.06.39-2,.97-2.85,1.74-.84.78-1.52,1.76-2.02,2.95-.51,1.19-.76,2.59-.76,4.19Z"/>
          <path class="cls-2" d="M529.15,546.2v-28.42h17.96v5.25h-12.43v7.02h11.06v5.09h-11.02v11.06h-5.57Z"/>
          <path class="cls-2" d="M579.25,546.8c-1.98,0-3.85-.35-5.61-1.04s-3.31-1.68-4.63-2.97-2.37-2.83-3.15-4.65c-.78-1.82-1.16-3.86-1.16-6.13s.39-4.32,1.18-6.15c.79-1.83,1.85-3.39,3.19-4.67,1.34-1.28,2.88-2.27,4.63-2.97s3.57-1.04,5.47-1.04,3.68.27,5.19.82,2.79,1.27,3.85,2.16,1.91,1.9,2.57,3.03c.66,1.12,1.13,2.26,1.42,3.41l-5.21,1.64c-.16-.67-.43-1.35-.8-2.04-.38-.69-.88-1.31-1.5-1.84-.63-.53-1.4-.97-2.31-1.32-.91-.35-1.98-.52-3.21-.52-1.07,0-2.13.19-3.17.58-1.04.39-1.98.97-2.81,1.74s-1.5,1.76-2,2.97c-.51,1.2-.76,2.61-.76,4.21s.25,2.87.74,4.03,1.15,2.14,1.96,2.93c.81.79,1.75,1.39,2.81,1.8,1.06.42,2.16.62,3.31.62s2.27-.18,3.19-.54c.92-.36,1.7-.82,2.35-1.38.64-.56,1.16-1.18,1.56-1.86.4-.68.7-1.36.88-2.02l5.17,1.56c-.27,1.1-.73,2.21-1.38,3.35-.65,1.14-1.52,2.17-2.6,3.11-1.08.93-2.38,1.7-3.89,2.31-1.51.6-3.27.9-5.27.9Z"/>
          <path class="cls-2" d="M601.42,546.2v-28.42h5.61v28.42h-5.61Z"/>
          <path class="cls-2" d="M629.88,523.03v23.17h-5.57v-23.17h-8.98v-5.25h23.53v5.25h-8.98Z"/>
          <path class="cls-2" d="M647.16,546.2v-28.42h5.61v28.42h-5.61Z"/>
          <path class="cls-2" d="M663.67,546.2v-28.42h17.8v5.21h-12.27v6.49h11.1v4.93h-11.1v6.57h12.27v5.21h-17.8Z"/>
          <path class="cls-2" d="M705.56,526.08c-.08-.4-.22-.84-.42-1.3s-.5-.9-.9-1.3c-.4-.4-.92-.73-1.55-1-.63-.27-1.4-.4-2.3-.4-.67,0-1.28.1-1.83.3-.55.2-1.02.47-1.4.8-.39.33-.69.72-.9,1.14-.21.43-.32.88-.32,1.36,0,.78.25,1.45.76,2.02.51.58,1.28.97,2.33,1.18l3.97.76c1.28.24,2.42.63,3.41,1.16s1.82,1.17,2.48,1.9c.67.74,1.18,1.56,1.52,2.47.35.91.52,1.86.52,2.85,0,1.1-.23,2.17-.68,3.23s-1.12,1.99-1.98,2.81c-.87.82-1.94,1.48-3.21,1.98-1.27.51-2.73.76-4.39.76-1.9,0-3.53-.27-4.89-.82-1.36-.55-2.51-1.25-3.43-2.1s-1.62-1.81-2.1-2.87-.78-2.09-.88-3.11l5.13-1.36c.05.7.22,1.36.5,2.01.28.64.67,1.21,1.18,1.7.51.5,1.14.89,1.88,1.18s1.63.44,2.65.44c1.5,0,2.64-.33,3.43-.98.79-.65,1.18-1.49,1.18-2.5,0-.83-.29-1.54-.88-2.14s-1.44-1.01-2.56-1.22l-3.97-.8c-2.27-.45-4.08-1.38-5.43-2.79-1.35-1.4-2.02-3.19-2.02-5.35,0-1.26.26-2.42.78-3.51.52-1.08,1.24-2.02,2.14-2.83.91-.8,1.96-1.43,3.17-1.88,1.2-.45,2.47-.68,3.81-.68,1.71,0,3.17.23,4.39.7,1.21.47,2.22,1.06,3.03,1.78.8.72,1.42,1.52,1.86,2.38.44.87.74,1.7.9,2.51l-4.97,1.52Z"/>
        </g>
        <path class="cls-2" d="M209.52,417.58c-8.26-4.03-18.04-5.16-27.12-5.16-8.11,0-16.51.97-24.13,3.87-4.77,1.82-13.21,6.07-10.98,12.57.4,1.17,1.14,2.19,1.87,3.19,10.06,13.65,20.77,26.85,31.17,40.24.84,1.08,2.48,1.09,3.33.02,10.94-13.77,22.12-27.39,32.8-41.37,1.06-1.38,1.48-2.74,1.44-4.04-.11-4.08-4.76-7.56-8.39-9.33Z"/>
        <g>
          <path class="cls-3" d="M170.07,270.38c2.98-.67,7.14-1.35,11.86-1.35,4.99,0,9.6.75,12.84,1.46,1.75.38,3.12-1.5,2.22-3.05l-6.07-10.51-6.75-11.7c-.8-1.38-2.79-1.38-3.58,0l-6.75,11.7-6,10.39c-.9,1.56.48,3.46,2.23,3.06Z"/>
          <path class="cls-3" d="M143.06,276.42l-11.27-4.5-12.55-5.01c-1.48-.59-3.04.64-2.81,2.22l1.94,13.37,1.72,11.87c.26,1.78,2.52,2.42,3.65,1.02,1.92-2.37,4.77-5.48,8.48-8.4,3.92-3.09,8.01-5.35,10.99-6.8,1.62-.78,1.52-3.11-.15-3.77Z"/>
          <path class="cls-3" d="M100.03,346.98c1.37,1.17,3.49.16,3.42-1.63-.12-3.05-.02-7.27.85-11.91.91-4.9,2.5-9.3,3.79-12.36.7-1.65-.9-3.34-2.6-2.74l-11.44,4.04-12.74,4.5c-1.5.53-1.87,2.49-.66,3.52l10.26,8.78,9.11,7.8Z"/>
          <path class="cls-3" d="M283.66,326.87l-12.74-4.5-11.44-4.04c-1.69-.6-3.29,1.09-2.6,2.74,1.29,3.06,2.88,7.45,3.79,12.36.87,4.64.96,8.86.85,11.91-.07,1.8,2.05,2.8,3.42,1.63l9.11-7.8,10.26-8.78c1.21-1.03.84-2.99-.66-3.52Z"/>
          <path class="cls-3" d="M247.99,296.67l2.23-10.33,2.48-14.88c.29-1.56-1.22-2.86-2.72-2.33l-12.74,4.49-11.31,3.99c-1.7.6-1.88,2.94-.3,3.78,2.7,1.43,6.3,3.62,9.89,6.69,3.79,3.24,6.8,6.81,8.8,9.46,1.08,1.43,3.34.89,3.67-.87Z"/>
          <path class="cls-3" d="M111.35,387.44c-2.33-4.41-3.81-8.84-4.7-12.04-.48-1.73-2.78-2.06-3.74-.54l-6.46,10.27-7.19,11.43c-.85,1.35.08,3.11,1.67,3.17l13.5.51,11.99.46c1.8.07,2.83-2.04,1.67-3.4-1.99-2.32-4.53-5.68-6.73-9.86Z"/>
          <path class="cls-3" d="M266.56,382.99l-7.26-9.55c-1.09-1.43-3.37-.9-3.69.87-.53,3.01-1.52,7.11-3.34,11.46-1.93,4.6-4.41,8.56-6.31,11.28-1.03,1.47.18,3.46,1.96,3.23l12.04-1.53,13.4-1.7c1.58-.2,2.35-2.04,1.38-3.3l-8.18-10.75Z"/>
          <circle class="cls-3" cx="182.64" cy="349.34" r="45.24" transform="translate(-75.38 51.31) rotate(-13.28)"/>
        </g>
        <g>
          <path class="cls-2" d="M417.71,329.93h-98c-2.42,0-4.38,1.96-4.38,4.38v136.63c0,2.42,1.96,4.38,4.38,4.38h20.22c2.42,0,4.38-1.96,4.38-4.38v-50.13c0-2.42,1.96-4.38,4.38-4.38h64.15c2.42,0,4.38-1.96,4.38-4.38v-17.94c0-2.42-1.96-4.38-4.38-4.38h-64.15c-2.42,0-4.38-1.96-4.38-4.38v-24.38c0-2.42,1.96-4.38,4.38-4.38h69.03c2.42,0,4.38-1.96,4.38-4.38v-17.94c0-2.42-1.96-4.38-4.38-4.38Z"/>
          <path class="cls-2" d="M555.42,448.21h-73.42c-.95,0-1.71-.77-1.71-1.71v-114.85c0-.95-.77-1.71-1.71-1.71h-25.54c-.95,0-1.71.77-1.71,1.71v141.96c0,.95.77,1.71,1.71,1.71h102.39c.95,0,1.71-.77,1.71-1.71v-23.68c0-.95-.77-1.71-1.71-1.71Z"/>
          <path class="cls-2" d="M710.86,358.36c-12.11-19.47-35.28-31.13-61.42-31.13-44.76,0-76.33,31.67-76.33,75.39s31.57,75.39,76.33,75.39c25.92,0,47.4-11.25,60.39-29.33.55-.77.36-1.85-.41-2.4l-20.9-15.04c-.76-.55-1.81-.36-2.37.4-8.71,11.81-21.41,18.55-36.91,18.55-25.65,0-45.8-18.38-45.9-47.56,0-28.25,19.52-47.56,45.9-47.56,15.61,0,28.43,6.95,36.68,18.7.52.74,1.51.97,2.29.5l22.08-13.52c.81-.5,1.08-1.57.58-2.37Z"/>
        </g>
      </g>
    </g>
  </g>
</svg>