<?xml version="1.0" encoding="UTF-8"?>
<svg id="Layer_2" data-name="Layer 2" xmlns="http://www.w3.org/2000/svg" viewBox="0 0 1126.25 1126.25">
  <defs>
    <style>
      .cls-1 {
        opacity: 0;
      }

      .cls-1, .cls-2 {
        fill: #fff;
        stroke-width: 0px;
      }
    </style>
  </defs>
  <g id="Layer_1-2" data-name="Layer 1">
    <g>
      <rect class="cls-1" x="0" width="1126.25" height="1126.25"/>
      <g>
        <g>
          <path class="cls-2" d="M85.23,791.72v-43.12h27.24v7.96h-18.85v10.64h16.78v7.72h-16.72v16.78h-8.45Z"/>
          <path class="cls-2" d="M126.09,791.72v-43.12h8.39v35.09h19.22v8.03h-27.61Z"/>
          <path class="cls-2" d="M162.88,770.2c0-3.49.61-6.62,1.82-9.4,1.22-2.78,2.84-5.14,4.87-7.08s4.38-3.44,7.05-4.47c2.68-1.03,5.47-1.55,8.39-1.55s5.73.52,8.42,1.55c2.7,1.04,5.06,2.53,7.08,4.47s3.65,4.31,4.86,7.08c1.22,2.78,1.82,5.91,1.82,9.4s-.61,6.61-1.82,9.36c-1.21,2.76-2.84,5.11-4.86,7.06-2.03,1.95-4.39,3.44-7.08,4.47-2.7,1.04-5.5,1.55-8.42,1.55s-5.72-.52-8.39-1.55c-2.68-1.03-5.03-2.52-7.05-4.47-2.03-1.95-3.65-4.3-4.87-7.06-1.21-2.76-1.82-5.88-1.82-9.36ZM171.58,770.13c0,2.43.38,4.55,1.16,6.35.77,1.8,1.79,3.29,3.07,4.47,1.28,1.18,2.72,2.06,4.32,2.65,1.6.59,3.23.88,4.9.88s3.3-.29,4.93-.88c1.62-.59,3.07-1.47,4.35-2.65,1.28-1.18,2.3-2.67,3.07-4.47.77-1.8,1.16-3.92,1.16-6.35s-.39-4.55-1.16-6.35c-.77-1.8-1.79-3.29-3.07-4.47-1.28-1.18-2.73-2.06-4.35-2.65-1.62-.59-3.26-.88-4.93-.88s-3.29.29-4.9.88c-1.6.59-3.04,1.47-4.32,2.65-1.28,1.18-2.3,2.67-3.07,4.47-.77,1.8-1.16,3.92-1.16,6.35Z"/>
          <path class="cls-2" d="M234.04,775.12h-4.38v16.6h-8.45v-43.12h16.85c2.11,0,4,.34,5.69,1.03,1.68.69,3.12,1.62,4.32,2.8s2.12,2.57,2.77,4.2.97,3.36.97,5.23c0,3.04-.82,5.64-2.46,7.78-1.64,2.15-3.88,3.63-6.72,4.44l9.24,17.64h-9.37l-8.45-16.6ZM236.47,767.88c2.15,0,3.81-.55,4.99-1.64s1.76-2.53,1.76-4.32-.59-3.29-1.76-4.38-2.84-1.64-4.99-1.64h-6.81v11.98h6.81Z"/>
          <path class="cls-2" d="M265.9,791.72v-43.12h8.51v43.12h-8.51Z"/>
          <path class="cls-2" d="M290.96,791.72v-43.12h15.45c3.08,0,5.92.49,8.52,1.46,2.59.97,4.83,2.38,6.72,4.23,1.89,1.85,3.36,4.1,4.44,6.78s1.61,5.72,1.61,9.12-.54,6.45-1.61,9.12-2.56,4.93-4.47,6.75c-1.91,1.82-4.16,3.22-6.75,4.2-2.6.97-5.43,1.46-8.51,1.46h-15.39ZM306.04,783.94c1.74,0,3.41-.28,4.99-.82,1.58-.55,2.96-1.39,4.13-2.53,1.18-1.13,2.11-2.56,2.8-4.29.69-1.72,1.03-3.76,1.03-6.11s-.34-4.39-1.03-6.11c-.69-1.72-1.61-3.15-2.77-4.29s-2.52-1.99-4.1-2.56c-1.58-.57-3.24-.85-4.99-.85h-6.75v27.55h6.69Z"/>
          <path class="cls-2" d="M365.27,781.87h-17.51l-3.59,9.85h-8.88l16.54-43.12h9.73l16.42,43.12h-9.12l-3.59-9.85ZM350.55,774.21h11.92l-5.96-16.3-5.96,16.3Z"/>
          <path class="cls-2" d="M411.91,791.72v-43.12h8.39v35.09h19.22v8.03h-27.61Z"/>
          <path class="cls-2" d="M452.66,791.72v-43.12h27v7.91h-18.61v9.85h16.85v7.48h-16.85v9.97h18.61v7.91h-27Z"/>
          <path class="cls-2" d="M520.41,781.87h-17.51l-3.59,9.85h-8.88l16.54-43.12h9.73l16.42,43.12h-9.12l-3.59-9.85ZM505.69,774.21h11.92l-5.96-16.3-5.96,16.3Z"/>
          <path class="cls-2" d="M575.5,791.72l-.55-4.93c-.49.73-1.11,1.45-1.88,2.16-.77.71-1.7,1.34-2.77,1.88-1.07.55-2.28.98-3.62,1.31s-2.82.49-4.44.49c-2.92,0-5.68-.52-8.27-1.55-2.59-1.03-4.87-2.51-6.84-4.44-1.97-1.92-3.53-4.28-4.68-7.06-1.16-2.78-1.73-5.91-1.73-9.39s.6-6.62,1.8-9.4c1.19-2.78,2.82-5.14,4.86-7.08s4.4-3.44,7.06-4.47c2.65-1.03,5.44-1.55,8.36-1.55s5.36.38,7.57,1.12c2.21.75,4.12,1.75,5.75,3.01,1.62,1.26,2.96,2.68,4.01,4.26,1.05,1.58,1.85,3.2,2.37,4.87l-8.03,2.86c-.28-.97-.72-1.95-1.31-2.92-.59-.97-1.36-1.85-2.31-2.65-.95-.79-2.1-1.44-3.44-1.95s-2.88-.76-4.62-.76c-1.62,0-3.24.28-4.86.85-1.62.57-3.07,1.45-4.35,2.65-1.28,1.2-2.32,2.72-3.13,4.56s-1.21,4.04-1.21,6.6.37,4.57,1.12,6.42,1.74,3.39,2.98,4.62c1.24,1.24,2.68,2.17,4.32,2.8,1.64.63,3.37.94,5.2.94,1.99,0,3.69-.29,5.11-.88,1.42-.59,2.58-1.31,3.5-2.16.91-.85,1.6-1.77,2.07-2.74.47-.97.76-1.85.88-2.62h-13.62v-7.3h21.53v22.44h-6.81Z"/>
          <path class="cls-2" d="M613.57,792.7c-2.31,0-4.47-.35-6.47-1.04s-3.75-1.72-5.23-3.1c-1.48-1.38-2.65-3.08-3.53-5.11-.87-2.03-1.31-4.36-1.31-6.99v-27.85h8.39v27.24c0,2.84.73,4.98,2.19,6.45s3.44,2.19,5.96,2.19,4.56-.73,6.02-2.19c1.46-1.46,2.19-3.61,2.19-6.45v-27.24h8.39v27.85c0,2.63-.44,4.97-1.31,6.99s-2.05,3.73-3.53,5.11c-1.48,1.38-3.24,2.41-5.26,3.1s-4.2,1.04-6.51,1.04Z"/>
          <path class="cls-2" d="M646.29,791.72v-43.12h27v7.91h-18.61v9.85h16.85v7.48h-16.85v9.97h18.61v7.91h-27Z"/>
          <path class="cls-2" d="M707.52,770.2c0-3.49.61-6.62,1.82-9.4,1.22-2.78,2.84-5.14,4.87-7.08s4.38-3.44,7.05-4.47c2.68-1.03,5.47-1.55,8.39-1.55s5.73.52,8.42,1.55c2.7,1.04,5.06,2.53,7.08,4.47s3.65,4.31,4.86,7.08c1.22,2.78,1.82,5.91,1.82,9.4s-.61,6.61-1.82,9.36c-1.21,2.76-2.84,5.11-4.86,7.06-2.03,1.95-4.39,3.44-7.08,4.47-2.7,1.04-5.5,1.55-8.42,1.55s-5.72-.52-8.39-1.55c-2.68-1.03-5.03-2.52-7.05-4.47-2.03-1.95-3.65-4.3-4.87-7.06-1.21-2.76-1.82-5.88-1.82-9.36ZM716.22,770.13c0,2.43.38,4.55,1.16,6.35.77,1.8,1.79,3.29,3.07,4.47,1.28,1.18,2.72,2.06,4.32,2.65,1.6.59,3.23.88,4.9.88s3.3-.29,4.93-.88c1.62-.59,3.07-1.47,4.35-2.65,1.28-1.18,2.3-2.67,3.07-4.47.77-1.8,1.16-3.92,1.16-6.35s-.39-4.55-1.16-6.35c-.77-1.8-1.79-3.29-3.07-4.47-1.28-1.18-2.73-2.06-4.35-2.65-1.62-.59-3.26-.88-4.93-.88s-3.29.29-4.9.88c-1.6.59-3.04,1.47-4.32,2.65-1.28,1.18-2.3,2.67-3.07,4.47-.77,1.8-1.16,3.92-1.16,6.35Z"/>
          <path class="cls-2" d="M765.85,791.72v-43.12h27.24v7.96h-18.85v10.64h16.78v7.72h-16.72v16.78h-8.45Z"/>
          <path class="cls-2" d="M841.86,792.64c-3,0-5.84-.53-8.51-1.58s-5.02-2.56-7.02-4.5-3.6-4.3-4.77-7.06c-1.18-2.75-1.77-5.86-1.77-9.3s.6-6.56,1.8-9.33c1.19-2.78,2.81-5.14,4.83-7.08,2.03-1.95,4.37-3.45,7.02-4.5s5.42-1.58,8.3-1.58,5.58.42,7.87,1.25,4.24,1.92,5.84,3.28,2.9,2.89,3.89,4.59c.99,1.7,1.71,3.43,2.16,5.17l-7.91,2.49c-.24-1.01-.65-2.05-1.21-3.1-.57-1.05-1.33-1.99-2.28-2.8-.95-.81-2.12-1.48-3.5-2.01-1.38-.53-3-.79-4.86-.79-1.62,0-3.22.29-4.81.88-1.58.59-3,1.47-4.26,2.65s-2.27,2.68-3.04,4.5c-.77,1.82-1.16,3.95-1.16,6.39s.37,4.35,1.12,6.11,1.74,3.24,2.98,4.44c1.24,1.2,2.65,2.11,4.26,2.74,1.6.63,3.27.94,5.02.94s3.44-.27,4.83-.82c1.4-.55,2.58-1.25,3.56-2.1.97-.85,1.76-1.79,2.37-2.83.61-1.04,1.06-2.06,1.34-3.07l7.85,2.37c-.41,1.66-1.11,3.36-2.1,5.08-.99,1.72-2.31,3.29-3.95,4.71-1.64,1.42-3.61,2.58-5.9,3.5-2.29.91-4.95,1.37-8,1.37Z"/>
          <path class="cls-2" d="M875.49,791.72v-43.12h8.51v43.12h-8.51Z"/>
          <path class="cls-2" d="M918.67,756.57v35.15h-8.45v-35.15h-13.62v-7.96h35.7v7.96h-13.62Z"/>
          <path class="cls-2" d="M944.88,791.72v-43.12h8.51v43.12h-8.51Z"/>
          <path class="cls-2" d="M969.93,791.72v-43.12h27v7.91h-18.61v9.85h16.85v7.48h-16.85v9.97h18.61v7.91h-27Z"/>
          <path class="cls-2" d="M1033.48,761.19c-.12-.61-.33-1.27-.64-1.98s-.76-1.37-1.37-1.98c-.61-.61-1.39-1.11-2.34-1.52-.95-.4-2.12-.61-3.49-.61-1.02,0-1.94.15-2.77.45-.83.31-1.54.71-2.13,1.22-.59.51-1.04,1.09-1.37,1.73-.32.65-.48,1.34-.48,2.07,0,1.18.38,2.2,1.15,3.07.77.87,1.95,1.47,3.53,1.8l6.02,1.16c1.95.36,3.67.95,5.17,1.76s2.76,1.77,3.77,2.89c1.01,1.12,1.78,2.36,2.31,3.74.53,1.38.79,2.82.79,4.32,0,1.66-.34,3.29-1.03,4.9s-1.69,3.02-3.01,4.26c-1.32,1.24-2.94,2.24-4.86,3.01-1.93.77-4.15,1.16-6.66,1.16-2.88,0-5.35-.42-7.42-1.25-2.07-.83-3.8-1.9-5.2-3.19s-2.46-2.75-3.19-4.35-1.18-3.17-1.34-4.71l7.78-2.07c.08,1.06.33,2.07.76,3.04.43.97,1.02,1.83,1.8,2.58.77.75,1.72,1.35,2.86,1.79s2.47.67,4.01.67c2.27,0,4-.5,5.2-1.49,1.19-.99,1.79-2.26,1.79-3.8,0-1.26-.45-2.34-1.34-3.25s-2.19-1.53-3.89-1.86l-6.02-1.21c-3.44-.69-6.19-2.1-8.24-4.23-2.05-2.13-3.07-4.83-3.07-8.12,0-1.91.39-3.68,1.19-5.32.79-1.64,1.87-3.07,3.25-4.29,1.38-1.21,2.98-2.17,4.8-2.86,1.82-.69,3.75-1.03,5.78-1.03,2.59,0,4.81.35,6.66,1.06,1.84.71,3.37,1.61,4.59,2.7,1.21,1.09,2.16,2.3,2.83,3.62.67,1.32,1.12,2.58,1.37,3.8l-7.54,2.31Z"/>
        </g>
        <path class="cls-2" d="M280.94,596.59c-12.54-6.11-27.36-7.82-41.15-7.82-12.31,0-25.04,1.47-36.61,5.87-7.23,2.76-20.05,9.21-16.66,19.07.61,1.77,1.73,3.32,2.84,4.83,15.27,20.7,31.51,40.74,47.29,61.05,1.28,1.65,3.76,1.66,5.05.03,16.6-20.89,33.56-41.55,49.76-62.76,1.6-2.1,2.24-4.16,2.19-6.13-.17-6.19-7.22-11.46-12.73-14.15Z"/>
        <g>
          <path class="cls-2" d="M221.09,373.28c4.52-1.02,10.83-2.05,17.99-2.05,7.57,0,14.56,1.14,19.48,2.22,2.66.58,4.73-2.27,3.37-4.63l-9.21-15.95-10.25-17.75c-1.21-2.09-4.23-2.09-5.43,0l-10.25,17.75-9.1,15.76c-1.36,2.36.73,5.25,3.39,4.64Z"/>
          <path class="cls-2" d="M180.11,382.44l-17.1-6.83-19.03-7.6c-2.24-.9-4.61.97-4.27,3.36l2.94,20.28,2.61,18.01c.39,2.7,3.82,3.67,5.53,1.55,2.92-3.6,7.24-8.31,12.87-12.75,5.94-4.68,12.14-8.12,16.67-10.32,2.45-1.19,2.31-4.72-.22-5.73Z"/>
          <path class="cls-2" d="M114.84,489.48c2.07,1.77,5.29.25,5.19-2.48-.18-4.63-.03-11.02,1.29-18.07,1.39-7.44,3.79-14.11,5.75-18.74,1.06-2.51-1.37-5.07-3.94-4.16l-17.36,6.13-19.33,6.82c-2.28.8-2.83,3.77-1,5.34l15.57,13.33,13.83,11.83Z"/>
          <path class="cls-2" d="M393.43,458.98l-19.33-6.82-17.36-6.13c-2.57-.91-5,1.65-3.94,4.16,1.96,4.64,4.37,11.31,5.75,18.74,1.31,7.04,1.46,13.43,1.29,18.07-.1,2.72,3.11,4.25,5.19,2.48l13.83-11.83,15.57-13.33c1.83-1.57,1.28-4.54-1-5.34Z"/>
          <path class="cls-2" d="M339.31,413.16l3.38-15.67,3.76-22.57c.44-2.37-1.85-4.34-4.13-3.53l-19.33,6.82-17.16,6.06c-2.57.91-2.86,4.46-.45,5.73,4.1,2.16,9.56,5.49,15,10.15,5.75,4.92,10.32,10.34,13.36,14.35,1.64,2.17,5.07,1.35,5.57-1.33Z"/>
          <path class="cls-2" d="M132,550.87c-3.53-6.69-5.79-13.41-7.13-18.26-.73-2.63-4.22-3.12-5.67-.82l-9.81,15.58-10.91,17.35c-1.29,2.04.12,4.71,2.54,4.8l20.48.78,18.19.69c2.72.1,4.3-3.09,2.53-5.16-3.01-3.52-6.87-8.62-10.21-14.96Z"/>
          <path class="cls-2" d="M367.49,544.11l-11.02-14.49c-1.65-2.17-5.12-1.36-5.59,1.33-.8,4.56-2.3,10.78-5.07,17.39-2.93,6.98-6.68,12.99-9.58,17.11-1.57,2.23.27,5.24,2.97,4.9l18.27-2.32,20.33-2.59c2.4-.3,3.56-3.09,2.1-5.01l-12.4-16.31Z"/>
          <circle class="cls-2" cx="240.16" cy="493.07" r="68.63" transform="translate(-106.86 68.37) rotate(-13.28)"/>
        </g>
        <g>
          <path class="cls-2" d="M596.79,463.62h-148.68c-3.67,0-6.64,2.97-6.64,6.64v207.28c0,3.67,2.97,6.64,6.64,6.64h30.68c3.67,0,6.64-2.97,6.64-6.64v-76.05c0-3.67,2.97-6.64,6.64-6.64h97.32c3.67,0,6.64-2.97,6.64-6.64v-27.21c0-3.67-2.97-6.64-6.64-6.64h-97.32c-3.67,0-6.64-2.97-6.64-6.64v-36.98c0-3.67,2.97-6.64,6.64-6.64h104.72c3.67,0,6.64-2.97,6.64-6.64v-27.21c0-3.67-2.97-6.64-6.64-6.64Z"/>
          <path class="cls-2" d="M805.71,643.06h-111.38c-1.44,0-2.6-1.16-2.6-2.6v-174.24c0-1.44-1.16-2.6-2.6-2.6h-38.75c-1.44,0-2.6,1.16-2.6,2.6v215.36c0,1.44,1.16,2.6,2.6,2.6h155.34c1.44,0,2.6-1.16,2.6-2.6v-35.92c0-1.44-1.16-2.6-2.6-2.6Z"/>
          <path class="cls-2" d="M1041.52,506.75c-18.37-29.54-53.52-47.23-93.18-47.23-67.9,0-115.8,48.05-115.8,114.38s47.89,114.38,115.8,114.38c39.32,0,71.9-17.07,91.62-44.5.84-1.17.55-2.81-.62-3.65l-31.71-22.81c-1.16-.83-2.75-.55-3.6.6-13.21,17.92-32.49,28.14-56,28.14-38.91,0-69.48-27.88-69.63-72.15,0-42.85,29.62-72.15,69.63-72.15,23.69,0,43.13,10.54,55.65,28.37.79,1.13,2.3,1.47,3.47.76l33.5-20.52c1.23-.75,1.64-2.37.88-3.6Z"/>
        </g>
      </g>
    </g>
  </g>
</svg>